# xmcd
#
# Track frame offsets:
# 150
# 12477
# 21982
# 34352
# 49262
# 62707
# 76747
# 89017
# 100287
# 112235
# 122412
# 132887
# 146840
# 159750
# 173955
# 186012
# 196100
# 217972
# 235042
# 245492
#
# Disc length: 3429 seconds
#
#
# Revision: 0
# Processed by: cddbd v1.5.1PL0 Copyright (c) Steve Scherf et al.
# Submitted via: FreeRIP 2.70 
#
DISCID=150d6314
DTITLE=Johnny Paycheck - Collectors Edition
DYEAR=1900
DGENRE=Country
TTITLE0=Take This Job and Shove It
TTITLE1=Mr. Lovemaker
TTITLE2=She's All I got
TTITLE3=Someone To Give My Love To
TTITLE4=Slide Off Of Your Satin Sheets
TTITLE5=I'm The Only Hell (Mama Ever Raised)
TTITLE6=Song And Dance Man
TTITLE7=The Lovin' Machine
TTITLE8=Something About You I Love
TTITLE9=Motel Time Again
TTITLE10=Jukebox Charlie
TTITLE11=Drinkin' and Drivin'
TTITLE12=Keep On Lovin' Me
TTITLE13=Somebody Loves Me
TTITLE14=Me And The I.R.S.
TTITLE15=Loving You Beats All I've Ever Seen
TTITLE16=Outlaw's Prayer
TTITLE17=In Memory Of A Memory
TTITLE18=A-11
TTITLE19=For A Minute There
EXTD=
EXTT0=
EXTT1=
EXTT2=
EXTT3=
EXTT4=
EXTT5=
EXTT6=
EXTT7=
EXTT8=
EXTT9=
EXTT10=
EXTT11=
EXTT12=
EXTT13=
EXTT14=
EXTT15=
EXTT16=
EXTT17=
EXTT18=
EXTT19=
PLAYORDER=
